<svg xmlns="http://www.w3.org/2000/svg" xmlns:xlink="http://www.w3.org/1999/xlink" width="1080" zoomAndPan="magnify" viewBox="0 0 810 1439.999935" height="1920" preserveAspectRatio="xMidYMid meet" version="1.0"><defs><clipPath id="cb5a3f6489"><path d="M 167.210938 299.390625 L 729 299.390625 L 729 861.179688 L 167.210938 861.179688 Z M 167.210938 299.390625 " clip-rule="nonzero"/></clipPath><clipPath id="ee392e6940"><path d="M 448.105469 299.390625 C 292.972656 299.390625 167.210938 425.152344 167.210938 580.285156 C 167.210938 735.417969 292.972656 861.179688 448.105469 861.179688 C 603.238281 861.179688 729 735.417969 729 580.285156 C 729 425.152344 603.238281 299.390625 448.105469 299.390625 Z M 448.105469 299.390625 " clip-rule="nonzero"/></clipPath><clipPath id="4915c61991"><path d="M 0 596.625 L 478.359375 596.625 L 478.359375 1440 L 0 1440 Z M 0 596.625 " clip-rule="nonzero"/></clipPath><clipPath id="222844fde3"><path d="M 77.933594 613.351562 C 108.632812 603.25 143.75 596.625 178.121094 596.625 C 212.488281 596.625 245.5625 602.304688 276.039062 612.402344 C 276.6875 612.71875 277.335938 612.71875 277.984375 613.035156 C 392.4375 653.433594 476.738281 760.117188 478.359375 887.683594 L 478.359375 1440 L -122.441406 1440 L -122.441406 888.09375 C -120.820312 759.484375 -37.816406 652.804688 77.933594 613.351562 Z M 77.933594 613.351562 " clip-rule="nonzero"/></clipPath><clipPath id="a088eb2272"><path d="M 523.617188 143.761719 L 729 143.761719 L 729 349.144531 L 523.617188 349.144531 Z M 523.617188 143.761719 " clip-rule="nonzero"/></clipPath><clipPath id="596bec2d39"><path d="M 626.308594 143.761719 C 569.59375 143.761719 523.617188 189.738281 523.617188 246.453125 C 523.617188 303.167969 569.59375 349.144531 626.308594 349.144531 C 683.023438 349.144531 729 303.167969 729 246.453125 C 729 189.738281 683.023438 143.761719 626.308594 143.761719 Z M 626.308594 143.761719 " clip-rule="nonzero"/></clipPath><clipPath id="88c701a23f"><path d="M 0 847 L 312 847 L 312 1440 L 0 1440 Z M 0 847 " clip-rule="nonzero"/></clipPath><clipPath id="3dbb8d74ff"><path d="M -72.988281 696.476562 L 383.460938 948.183594 L -239.46875 2077.808594 L -695.917969 1826.101562 Z M -72.988281 696.476562 " clip-rule="nonzero"/></clipPath><clipPath id="93d85802a3"><path d="M 383.152344 948.011719 L -73.296875 696.304688 L -696.226562 1825.933594 L -239.777344 2077.640625 Z M 383.152344 948.011719 " clip-rule="nonzero"/></clipPath><clipPath id="590e48897e"><path d="M 695 107 L 810 107 L 810 438.078125 L 695 438.078125 Z M 695 107 " clip-rule="nonzero"/></clipPath><clipPath id="61e57adcd7"><path d="M 605.640625 73 L 739 73 L 739 129 L 605.640625 129 Z M 605.640625 73 " clip-rule="nonzero"/></clipPath><clipPath id="267a90283f"><path d="M 680 42.078125 L 745 42.078125 L 745 130 L 680 130 Z M 680 42.078125 " clip-rule="nonzero"/></clipPath><clipPath id="19221be692"><path d="M 412 836 L 810 836 L 810 1336 L 412 1336 Z M 412 836 " clip-rule="nonzero"/></clipPath><clipPath id="294a8eb568"><path d="M 820.722656 619.40625 L 1129.9375 1151.882812 L 497.582031 1519.101562 L 188.363281 986.625 Z M 820.722656 619.40625 " clip-rule="nonzero"/></clipPath><clipPath id="2a6b145094"><path d="M 820.722656 619.40625 L 1129.9375 1151.882812 L 497.582031 1519.101562 L 188.363281 986.625 Z M 820.722656 619.40625 " clip-rule="nonzero"/></clipPath><clipPath id="2156561fbb"><path d="M 820.722656 619.40625 L 1129.9375 1151.882812 L 497.582031 1519.101562 L 188.363281 986.625 Z M 820.722656 619.40625 " clip-rule="nonzero"/></clipPath><clipPath id="02dac0a9af"><path d="M 457 878 L 786 878 L 786 1297 L 457 1297 Z M 457 878 " clip-rule="nonzero"/></clipPath><clipPath id="414bb921bb"><path d="M 820.722656 619.40625 L 1129.9375 1151.882812 L 497.582031 1519.101562 L 188.363281 986.625 Z M 820.722656 619.40625 " clip-rule="nonzero"/></clipPath><clipPath id="9b2c42e0dd"><path d="M 820.722656 619.40625 L 1129.9375 1151.882812 L 497.582031 1519.101562 L 188.363281 986.625 Z M 820.722656 619.40625 " clip-rule="nonzero"/></clipPath><clipPath id="eca83ebc96"><path d="M 820.722656 619.40625 L 1129.9375 1151.882812 L 497.582031 1519.101562 L 188.363281 986.625 Z M 820.722656 619.40625 " clip-rule="nonzero"/></clipPath><clipPath id="3acd023b4b"><path d="M 370 777 L 810 777 L 810 1377 L 370 1377 Z M 370 777 " clip-rule="nonzero"/></clipPath><clipPath id="75eedc7d3f"><path d="M 820.722656 619.40625 L 1129.9375 1151.882812 L 497.582031 1519.101562 L 188.363281 986.625 Z M 820.722656 619.40625 " clip-rule="nonzero"/></clipPath><clipPath id="bc928c4145"><path d="M 820.722656 619.40625 L 1129.9375 1151.882812 L 497.582031 1519.101562 L 188.363281 986.625 Z M 820.722656 619.40625 " clip-rule="nonzero"/></clipPath><clipPath id="9084d54d0a"><path d="M 820.722656 619.40625 L 1129.9375 1151.882812 L 497.582031 1519.101562 L 188.363281 986.625 Z M 820.722656 619.40625 " clip-rule="nonzero"/></clipPath><clipPath id="141e51757c"><path d="M 512 939 L 689 939 L 689 1261 L 512 1261 Z M 512 939 " clip-rule="nonzero"/></clipPath><clipPath id="d588754ee9"><path d="M 820.722656 619.40625 L 1129.9375 1151.882812 L 497.582031 1519.101562 L 188.363281 986.625 Z M 820.722656 619.40625 " clip-rule="nonzero"/></clipPath><clipPath id="25916e7dbc"><path d="M 820.722656 619.40625 L 1129.9375 1151.882812 L 497.582031 1519.101562 L 188.363281 986.625 Z M 820.722656 619.40625 " clip-rule="nonzero"/></clipPath><clipPath id="2fc1373f33"><path d="M 820.722656 619.40625 L 1129.9375 1151.882812 L 497.582031 1519.101562 L 188.363281 986.625 Z M 820.722656 619.40625 " clip-rule="nonzero"/></clipPath><clipPath id="2d7eb1a1e6"><path d="M 328 709 L 810 709 L 810 1431 L 328 1431 Z M 328 709 " clip-rule="nonzero"/></clipPath><clipPath id="0ecc518cc8"><path d="M 820.722656 619.40625 L 1129.9375 1151.882812 L 497.582031 1519.101562 L 188.363281 986.625 Z M 820.722656 619.40625 " clip-rule="nonzero"/></clipPath><clipPath id="fa3e953229"><path d="M 820.722656 619.40625 L 1129.9375 1151.882812 L 497.582031 1519.101562 L 188.363281 986.625 Z M 820.722656 619.40625 " clip-rule="nonzero"/></clipPath><clipPath id="662044914b"><path d="M 820.722656 619.40625 L 1129.9375 1151.882812 L 497.582031 1519.101562 L 188.363281 986.625 Z M 820.722656 619.40625 " clip-rule="nonzero"/></clipPath><clipPath id="14b784ccb5"><path d="M 0 0 L 311 0 L 311 190 L 0 190 Z M 0 0 " clip-rule="nonzero"/></clipPath><clipPath id="69fa83b441"><path d="M 446.640625 -333.078125 L 434.515625 272.800781 L -284.589844 258.40625 L -272.464844 -347.46875 Z M 446.640625 -333.078125 " clip-rule="nonzero"/></clipPath><clipPath id="6d839bc9ca"><path d="M 440.128906 -7.644531 L 434.515625 272.800781 L -5.644531 263.992188 L -0.03125 -16.453125 Z M 440.128906 -7.644531 " clip-rule="nonzero"/></clipPath><clipPath id="aca306a4e9"><path d="M 446.640625 -333.085938 L 434.515625 272.792969 L -284.589844 258.402344 L -272.464844 -347.476562 Z M 446.640625 -333.085938 " clip-rule="nonzero"/></clipPath><clipPath id="e7481b4806"><path d="M 0 0 L 265 0 L 265 152 L 0 152 Z M 0 0 " clip-rule="nonzero"/></clipPath><clipPath id="f4f77acde6"><path d="M 446.640625 -333.078125 L 434.515625 272.800781 L -284.589844 258.40625 L -272.464844 -347.46875 Z M 446.640625 -333.078125 " clip-rule="nonzero"/></clipPath><clipPath id="b4a6958c45"><path d="M 440.128906 -7.644531 L 434.515625 272.800781 L -5.644531 263.992188 L -0.03125 -16.453125 Z M 440.128906 -7.644531 " clip-rule="nonzero"/></clipPath><clipPath id="65d990f803"><path d="M 446.640625 -333.085938 L 434.515625 272.792969 L -284.589844 258.402344 L -272.464844 -347.476562 Z M 446.640625 -333.085938 " clip-rule="nonzero"/></clipPath><clipPath id="712ab9c24c"><path d="M 0 0 L 365 0 L 365 234 L 0 234 Z M 0 0 " clip-rule="nonzero"/></clipPath><clipPath id="356db2e9b3"><path d="M 446.640625 -333.078125 L 434.515625 272.800781 L -284.589844 258.40625 L -272.464844 -347.46875 Z M 446.640625 -333.078125 " clip-rule="nonzero"/></clipPath><clipPath id="bd0618a543"><path d="M 440.128906 -7.644531 L 434.515625 272.800781 L -5.644531 263.992188 L -0.03125 -16.453125 Z M 440.128906 -7.644531 " clip-rule="nonzero"/></clipPath><clipPath id="3649a8168e"><path d="M 446.640625 -333.085938 L 434.515625 272.792969 L -284.589844 258.402344 L -272.464844 -347.476562 Z M 446.640625 -333.085938 " clip-rule="nonzero"/></clipPath><clipPath id="41f6f8e3af"><path d="M 0 0 L 151 0 L 151 118 L 0 118 Z M 0 0 " clip-rule="nonzero"/></clipPath><clipPath id="f99b9fa405"><path d="M 446.640625 -333.078125 L 434.515625 272.800781 L -284.589844 258.40625 L -272.464844 -347.46875 Z M 446.640625 -333.078125 " clip-rule="nonzero"/></clipPath><clipPath id="ec66312b8e"><path d="M 440.128906 -7.644531 L 434.515625 272.800781 L -5.644531 263.992188 L -0.03125 -16.453125 Z M 440.128906 -7.644531 " clip-rule="nonzero"/></clipPath><clipPath id="51ecd6fbe1"><path d="M 446.640625 -333.085938 L 434.515625 272.792969 L -284.589844 258.402344 L -272.464844 -347.476562 Z M 446.640625 -333.085938 " clip-rule="nonzero"/></clipPath><clipPath id="0e6073638e"><path d="M 0 0 L 433 0 L 433 261 L 0 261 Z M 0 0 " clip-rule="nonzero"/></clipPath><clipPath id="25eeeb3d5c"><path d="M 446.640625 -333.078125 L 434.515625 272.800781 L -284.589844 258.40625 L -272.464844 -347.46875 Z M 446.640625 -333.078125 " clip-rule="nonzero"/></clipPath><clipPath id="bb7b3500ac"><path d="M 440.128906 -7.644531 L 434.515625 272.800781 L -5.644531 263.992188 L -0.03125 -16.453125 Z M 440.128906 -7.644531 " clip-rule="nonzero"/></clipPath><clipPath id="6332f52d09"><path d="M 446.640625 -333.085938 L 434.515625 272.792969 L -284.589844 258.402344 L -272.464844 -347.476562 Z M 446.640625 -333.085938 " clip-rule="nonzero"/></clipPath></defs><rect x="-81" width="972" fill="#ffffff" y="-143.999994" height="1727.999922" fill-opacity="1"/><rect x="-81" width="972" fill="#6a6a6a" y="-143.999994" height="1727.999922" fill-opacity="1"/><g clip-path="url(#cb5a3f6489)"><g clip-path="url(#ee392e6940)"><path fill="#4e4e4e" d="M 167.210938 299.390625 L 729 299.390625 L 729 861.179688 L 167.210938 861.179688 Z M 167.210938 299.390625 " fill-opacity="1" fill-rule="nonzero"/></g></g><g clip-path="url(#4915c61991)"><g clip-path="url(#222844fde3)"><path fill="#353535" d="M -122.441406 596.625 L 478.359375 596.625 L 478.359375 1440 L -122.441406 1440 Z M -122.441406 596.625 " fill-opacity="1" fill-rule="nonzero"/></g></g><g clip-path="url(#a088eb2272)"><g clip-path="url(#596bec2d39)"><path fill="#353535" d="M 523.617188 143.761719 L 729 143.761719 L 729 349.144531 L 523.617188 349.144531 Z M 523.617188 143.761719 " fill-opacity="1" fill-rule="nonzero"/></g></g><g clip-path="url(#88c701a23f)"><g clip-path="url(#3dbb8d74ff)"><g clip-path="url(#93d85802a3)"><path fill="#000000" d="M 176.964844 990.648438 C 181.753906 987.222656 184.460938 985.238281 189.253906 981.8125 C 198.097656 975.492188 206.210938 969.34375 214.734375 963.167969 C 220.292969 959.144531 225.726562 955.234375 231.214844 951.476562 C 234.851562 948.980469 238.488281 946.570312 242.132812 944.324219 C 244.890625 942.617188 247.644531 941.054688 250.414062 939.550781 C 257.113281 935.90625 263.363281 932.84375 269.957031 929.492188 C 275.734375 926.558594 281.070312 923.996094 286.75 921.222656 C 295.460938 916.964844 303.414062 913.296875 311.808594 909.042969 L 311.816406 909.042969 C 311.816406 909.042969 311.816406 909.042969 311.8125 909.046875 C 305.414062 916.882812 298.996094 924.28125 291.660156 931.710938 C 286.792969 936.632812 281.898438 941.21875 276.5625 945.832031 C 270.398438 951.164062 264.15625 956.1875 257.402344 961.011719 C 254.554688 963.050781 251.648438 964.976562 248.667969 966.765625 C 244.714844 969.144531 240.660156 971.339844 236.554688 973.371094 C 230.382812 976.425781 224.203125 979.136719 217.90625 981.695312 C 213.144531 983.636719 208.601562 985.34375 203.828125 987 C 194.679688 990.175781 186.167969 992.753906 177.320312 995.394531 C 176.789062 995.820312 176.1875 996.167969 175.589844 996.351562 C 170.917969 997.820312 155.972656 1012.0625 130.085938 1035.425781 C 126.988281 1038.21875 123.894531 1041.007812 120.523438 1044.039062 C 131.480469 1037.226562 141.507812 1031.066406 151.144531 1025.5 C 157.863281 1021.613281 163.964844 1018.296875 169.992188 1015.203125 C 179.277344 1010.441406 187.613281 1006.582031 195.355469 1003.433594 C 201.503906 1000.9375 207.210938 998.921875 212.472656 997.503906 C 220.59375 995.300781 227.636719 994.191406 233.992188 993.625 C 247.375 992.441406 257.3125 993.195312 265.789062 995.121094 C 273 996.757812 278.75 998.839844 284.601562 1001.375 C 293.03125 1005.027344 299.855469 1008.6875 311.304688 1012.136719 C 286.519531 1015.117188 273.746094 1012.949219 247.867188 1018.320312 C 238.945312 1020.167969 228.085938 1023.820312 214.558594 1027.902344 C 207.742188 1029.960938 200.308594 1032.074219 191.984375 1034.332031 C 181.703125 1037.128906 170.53125 1039.90625 157.757812 1043.316406 C 142.25 1047.449219 126.207031 1051.203125 106.910156 1057.183594 C 106.339844 1057.449219 105.832031 1057.570312 105.390625 1057.585938 C 92.90625 1068.683594 79.253906 1080.667969 63.886719 1093.882812 C 72.679688 1088.757812 81.316406 1083.773438 89.640625 1079.199219 C 96.324219 1075.527344 102.53125 1072.28125 108.761719 1069.214844 C 117.917969 1064.699219 126.480469 1060.828125 134.714844 1057.582031 C 140.839844 1055.164062 146.707031 1053.175781 152.320312 1051.617188 C 156.914062 1050.351562 161.316406 1049.371094 165.550781 1048.71875 C 176.523438 1047.035156 186.371094 1046.511719 195.691406 1047.445312 C 204.035156 1048.28125 211.582031 1049.707031 218.871094 1052.59375 C 228.683594 1056.46875 236.972656 1061.628906 245.734375 1069.125 C 224.203125 1065.039062 205.570312 1066.566406 184.828125 1070.679688 C 174.199219 1072.785156 163.058594 1076.4375 151.203125 1079.945312 C 143.960938 1082.085938 136.496094 1084.210938 128.660156 1086.386719 C 117.796875 1089.410156 106.632812 1092.324219 94.503906 1095.644531 C 79.113281 1099.855469 63.964844 1103.539062 46.789062 1108.492188 C 28.644531 1123.898438 9.5625 1139.777344 -11.363281 1156.917969 C 2.308594 1149.3125 15.683594 1141.984375 28.554688 1135.355469 C 43.738281 1127.539062 57.980469 1120.648438 71.667969 1114.695312 C 84.730469 1109.011719 97.070312 1104.324219 108.84375 1100.496094 C 114.027344 1098.8125 119.0625 1097.402344 123.96875 1096.210938 C 131.867188 1094.304688 139.40625 1092.871094 146.695312 1091.925781 C 164.496094 1089.597656 180.648438 1089.117188 195.824219 1091.351562 C 217.363281 1094.53125 235.691406 1101.910156 254.703125 1114.136719 C 224.046875 1107.390625 196.667969 1108.261719 166.449219 1113.546875 C 150.828125 1116.28125 134.34375 1120.996094 116.828125 1126.042969 C 106.273438 1129.085938 95.183594 1132.304688 83.773438 1135.683594 C 68.160156 1140.304688 51.875 1145.144531 34.65625 1150.554688 C 13.976562 1157.054688 -6.324219 1163.277344 -28.394531 1170.820312 C -41.164062 1181.210938 -54.074219 1191.625 -67.460938 1202.382812 C -50.082031 1193.746094 -33.214844 1185.644531 -16.96875 1178.546875 C -0.832031 1171.492188 14.292969 1165.445312 28.75 1160.332031 C 42.753906 1155.378906 55.828125 1151.441406 68.109375 1148.292969 C 73.628906 1146.886719 78.929688 1145.738281 84.035156 1144.789062 C 92.519531 1143.21875 100.421875 1142.121094 107.925781 1141.375 C 128.8125 1139.296875 146.195312 1139.152344 160.898438 1140.765625 C 191.953125 1144.179688 209.792969 1153.09375 223.128906 1165.035156 C 206.214844 1159.476562 187.417969 1157.199219 161.265625 1158.875 C 146.257812 1159.84375 128.992188 1162.640625 108.378906 1166.933594 C 100.09375 1168.664062 91.160156 1170.796875 81.863281 1172.964844 C 73.15625 1174.988281 64.488281 1177.160156 55.785156 1179.175781 C 44.183594 1181.871094 32.125 1184.558594 19.4375 1187.621094 C 11.730469 1189.480469 4.027344 1191.28125 -3.941406 1193.1875 C -20.125 1197.046875 -36.351562 1201.019531 -53.371094 1205.511719 C -62.375 1207.894531 -71.25 1210.171875 -80.171875 1212.597656 C -97.222656 1226.285156 -116.394531 1241.636719 -133.835938 1255.679688 C -110.785156 1244.570312 -88.039062 1234.167969 -66.265625 1225.257812 C -46.230469 1217.0625 -27.332031 1210.085938 -9.382812 1204.269531 C 8.585938 1198.441406 25.257812 1193.917969 40.746094 1190.382812 C 47.914062 1188.742188 54.757812 1187.4375 61.304688 1186.363281 C 72.519531 1184.539062 82.84375 1183.324219 92.453125 1182.570312 C 121.925781 1180.273438 144.457031 1181.167969 161.9375 1184.289062 C 181.402344 1187.773438 194.605469 1193.308594 204.8125 1199.996094 C 215.011719 1206.683594 222.605469 1214.765625 231.0625 1223.84375 C 216.492188 1216.699219 203.375 1210.8125 187.058594 1207.351562 C 170.730469 1203.890625 150.035156 1202.597656 120.539062 1205.511719 C 101.292969 1207.417969 77.355469 1211.792969 49.207031 1217.539062 C 34.789062 1220.488281 19.304688 1223.71875 2.78125 1227.328125 C -17.960938 1231.863281 -39.433594 1236.71875 -62.464844 1242.460938 C -90.546875 1249.460938 -116.417969 1255.976562 -144.433594 1264.230469 C -164.734375 1280.632812 -185.15625 1297.289062 -204.917969 1313.832031 C -186.925781 1303.585938 -165.898438 1292.757812 -141.820312 1282.078125 C -130.921875 1277.242188 -119.652344 1272.613281 -107.804688 1268.136719 C -92.367188 1262.3125 -76.285156 1256.84375 -59.726562 1252.003906 C -48.644531 1248.773438 -37.433594 1245.890625 -26.226562 1243.433594 C -17.625 1241.554688 -9.082031 1239.964844 -0.605469 1238.664062 C 20.628906 1235.394531 41.132812 1233.488281 60.730469 1232.730469 C 80.40625 1231.972656 98.265625 1232.339844 114.101562 1233.847656 C 152.6875 1237.527344 176.296875 1246.3125 174.671875 1257.222656 C 169.527344 1247.5 139.183594 1244.914062 94.8125 1248.789062 C 72.753906 1250.71875 48.132812 1254.460938 21.742188 1259.488281 C 10.097656 1261.710938 -1.800781 1264.253906 -13.675781 1266.8125 C -25.066406 1269.269531 -36.507812 1271.929688 -47.714844 1274.472656 C -63.675781 1278.097656 -78.875 1281.570312 -93.765625 1285.335938 C -103.703125 1287.851562 -113.253906 1290.285156 -122.441406 1292.734375 C -144.289062 1298.566406 -163.652344 1304.253906 -180.742188 1310.019531 C -193.707031 1314.394531 -204.917969 1318.371094 -215.175781 1322.578125 C -215.304688 1322.644531 -215.421875 1322.695312 -215.542969 1322.746094 C -227.535156 1332.886719 -239.300781 1343.011719 -250.757812 1353.132812 C -234.199219 1343.152344 -214.703125 1332.566406 -192.082031 1322.007812 C -181.816406 1317.214844 -171.140625 1312.59375 -159.84375 1308.085938 C -145.136719 1302.222656 -129.691406 1296.644531 -113.675781 1291.632812 C -102.949219 1288.277344 -92.042969 1285.226562 -81.082031 1282.582031 C -72.671875 1280.539062 -64.269531 1278.785156 -55.914062 1277.289062 C -34.957031 1273.535156 -14.546875 1271.058594 5.125 1269.722656 C 24.875 1268.375 42.929688 1268.175781 59.058594 1269.164062 C 98.398438 1271.570312 122.972656 1279.574219 122.097656 1290.253906 C 116.1875 1280.847656 85.195312 1278.953125 40.59375 1283.765625 C 18.445312 1286.15625 -6.105469 1290.375 -32.207031 1295.890625 C -43.730469 1298.324219 -55.457031 1301.074219 -67.121094 1303.832031 C -78.316406 1306.484375 -89.523438 1309.324219 -100.472656 1312.050781 C -116.066406 1315.9375 -130.855469 1319.648438 -145.257812 1323.628906 C -154.867188 1326.28125 -164.074219 1328.832031 -172.890625 1331.394531 C -193.84375 1337.480469 -212.222656 1343.328125 -228.25 1349.144531 C -240.414062 1353.546875 -250.847656 1357.535156 -260.304688 1361.695312 C -260.363281 1361.726562 -260.421875 1361.75 -260.484375 1361.785156 C -265.652344 1366.421875 -270.753906 1371.050781 -275.773438 1375.683594 C -284.910156 1384.109375 -293.773438 1392.511719 -302.328125 1400.914062 C -283.15625 1389.144531 -263.417969 1378.042969 -243.730469 1368.300781 C -226.417969 1359.730469 -209.371094 1352.183594 -192.691406 1345.648438 C -176.105469 1339.144531 -160.09375 1333.757812 -144.78125 1329.292969 C -137.769531 1327.253906 -130.953125 1325.492188 -124.324219 1323.964844 C -113.164062 1321.390625 -102.582031 1319.382812 -92.476562 1317.847656 C -63.695312 1313.476562 -39.265625 1312.171875 -18.550781 1313.40625 C 22.296875 1315.851562 48.546875 1326.605469 73.363281 1341.625 C 37.144531 1330.257812 -1.53125 1325.398438 -58.429688 1333.640625 C -79.503906 1336.703125 -103.789062 1342.203125 -130.746094 1349.207031 C -145.09375 1352.941406 -160.128906 1357.046875 -175.789062 1361.59375 C -195.730469 1367.386719 -215.988281 1373.628906 -236.710938 1380.707031 C -262.394531 1389.484375 -286.058594 1397.992188 -308.949219 1407.695312 C -309.109375 1407.773438 -309.25 1407.839844 -309.386719 1407.886719 C -321.125 1419.625 -332.207031 1431.300781 -342.601562 1442.972656 C -324.324219 1430.265625 -304.644531 1418.417969 -283.523438 1407.726562 C -272.886719 1402.34375 -262.039062 1397.378906 -250.816406 1392.722656 C -234.800781 1386.066406 -218.296875 1380.148438 -201.417969 1375.066406 C -189.398438 1371.441406 -177.222656 1368.3125 -165.035156 1365.71875 C -155.4375 1363.675781 -145.851562 1361.996094 -136.324219 1360.671875 C -112.4375 1357.363281 -88.941406 1355.84375 -66.074219 1356.128906 C -44.667969 1356.398438 -24.300781 1358.15625 -5.0625 1361.605469 C 27.175781 1367.390625 54.71875 1377.320312 77.832031 1391.121094 C 48.109375 1380.667969 12.996094 1375.546875 -25.859375 1374.792969 C -58.101562 1374.171875 -92.261719 1377.132812 -127.230469 1382.945312 C -138.492188 1384.816406 -149.8125 1387.015625 -161.0625 1389.339844 C -168.25 1390.824219 -175.429688 1392.386719 -182.542969 1393.9375 C -199.535156 1397.664062 -216.203125 1401.816406 -232.488281 1406.394531 C -250.824219 1411.550781 -268.234375 1416.949219 -284.902344 1422.90625 C -307.976562 1431.164062 -328.476562 1439.5 -347.046875 1448.863281 C -347.472656 1449.125 -347.832031 1449.238281 -348.101562 1449.226562 C -360.632812 1463.652344 -371.996094 1477.984375 -382.226562 1492.382812 C -366.816406 1479.214844 -350.15625 1467.128906 -332.109375 1456.242188 C -322.640625 1450.527344 -312.902344 1445.273438 -302.757812 1440.328125 C -288.152344 1433.207031 -272.882812 1426.855469 -257.046875 1421.351562 C -245.734375 1417.421875 -234.148438 1413.984375 -222.386719 1411.089844 C -213.171875 1408.828125 -203.863281 1406.917969 -194.503906 1405.398438 C -171.644531 1401.675781 -148.378906 1399.699219 -125.097656 1399.757812 C -104.507812 1399.8125 -84.078125 1401.367188 -64.082031 1404.894531 C -34.144531 1410.183594 -5.414062 1419.644531 20.765625 1434.402344 C -12.292969 1423.382812 -48.214844 1418.960938 -83.664062 1418.371094 C -116.824219 1417.820312 -150.210938 1421.25 -182.519531 1427.261719 C -193.359375 1429.277344 -204.125 1431.644531 -214.71875 1434.121094 C -221.535156 1435.71875 -228.332031 1437.402344 -235.023438 1439.082031 C -251.082031 1443.121094 -266.707031 1447.628906 -281.824219 1452.597656 C -298.839844 1458.203125 -314.949219 1464.101562 -330.261719 1470.644531 C -351.214844 1479.605469 -369.816406 1488.792969 -386.59375 1499.269531 C -386.835938 1499.453125 -387.0625 1499.574219 -387.269531 1499.636719 C -394.707031 1510.53125 -401.4375 1521.402344 -407.527344 1532.339844 C -394.117188 1520.0625 -379.414062 1508.734375 -363.058594 1498.429688 C -354.605469 1493.105469 -345.824219 1488.175781 -336.589844 1483.527344 C -323.316406 1476.839844 -309.304688 1470.824219 -294.648438 1465.558594 C -284.148438 1461.785156 -273.320312 1458.457031 -262.300781 1455.628906 C -253.605469 1453.398438 -244.789062 1451.503906 -235.902344 1449.953125 C -213.660156 1446.085938 -191.15625 1443.917969 -168.773438 1443.589844 C -148.003906 1443.285156 -127.757812 1444.492188 -108.199219 1447.515625 C -76.28125 1452.441406 -47.511719 1461.730469 -22.109375 1475.492188 C -53.117188 1465.722656 -87.941406 1461.691406 -124.652344 1461.859375 C -155.976562 1462.007812 -188.234375 1465.777344 -220.214844 1472.234375 C -230.542969 1474.320312 -240.851562 1476.722656 -251.03125 1479.21875 C -257.519531 1480.808594 -264.011719 1482.472656 -270.40625 1484.121094 C -285.648438 1488.046875 -300.457031 1492.355469 -314.75 1497.035156 C -330.71875 1502.273438 -345.726562 1507.675781 -359.851562 1513.597656 C -379.191406 1521.699219 -395.953125 1529.746094 -410.796875 1538.871094 C -410.949219 1538.988281 -411.089844 1539.0625 -411.230469 1539.121094 C -416.515625 1549.085938 -421.246094 1559.0625 -425.46875 1569.113281 C -413.996094 1557.339844 -401.195312 1546.648438 -386.328125 1536.957031 C -378.800781 1532.046875 -370.835938 1527.539062 -362.273438 1523.273438 C -350.371094 1517.339844 -337.449219 1511.980469 -323.519531 1507.316406 C -313.929688 1504.105469 -303.835938 1501.28125 -293.339844 1498.921875 C -285.328125 1497.121094 -277.070312 1495.613281 -268.625 1494.441406 C -248.554688 1491.648438 -227.394531 1490.242188 -205.574219 1490.511719 C -186.632812 1490.746094 -167.386719 1492.246094 -148.128906 1495.414062 C -119.035156 1500.191406 -90.378906 1508.664062 -63.664062 1521.703125 C -92.339844 1514.199219 -122.640625 1511.128906 -152.375 1510.613281 C -180.875 1510.113281 -209.125 1512.523438 -235.765625 1516.363281 C -252.71875 1518.804688 -269.164062 1522.035156 -284.785156 1525.488281 C -292.386719 1527.167969 -299.785156 1528.832031 -307.027344 1530.5625 C -314.152344 1532.261719 -321.0625 1533.949219 -327.800781 1535.710938 C -345.246094 1540.265625 -361.214844 1545.351562 -375.726562 1550.851562 C -396.351562 1558.65625 -413.425781 1566.417969 -428.117188 1575.960938 C -428.183594 1576.015625 -428.25 1576.058594 -428.316406 1576.101562 C -433.726562 1589.757812 -438.183594 1603.464844 -441.878906 1617.378906 C -430.949219 1606.726562 -419.390625 1596.617188 -406.539062 1587.347656 C -394.765625 1578.859375 -382.34375 1571.164062 -369.3125 1564.316406 C -356.503906 1557.574219 -343.269531 1551.753906 -329.972656 1546.769531 C -323.925781 1544.503906 -317.851562 1542.503906 -311.804688 1540.714844 C -301.640625 1537.710938 -291.640625 1535.257812 -281.816406 1533.25 C -253.351562 1527.429688 -227.699219 1524.929688 -205.132812 1525.273438 C -178.738281 1525.679688 -157.253906 1529.523438 -138.867188 1535.8125 C -120.679688 1542.03125 -104.828125 1550.910156 -89.871094 1562.042969 C -117.480469 1548.941406 -147.234375 1541.972656 -185.707031 1543.621094 C -206.34375 1544.507812 -230.007812 1548.335938 -256.914062 1555.324219 C -267.214844 1558 -278 1561.257812 -289.167969 1564.777344 C -298.859375 1567.824219 -308.9375 1571.300781 -319.164062 1574.796875 C -332.125 1579.222656 -345.144531 1583.738281 -358.300781 1588.785156 C -366.070312 1591.761719 -373.769531 1594.738281 -381.386719 1597.765625 C -396.699219 1603.871094 -410.75 1609.851562 -424.179688 1616.078125 C -431.179688 1619.324219 -437.617188 1622.261719 -443.875 1625.285156 C -446.910156 1637.738281 -449.339844 1650.285156 -451.3125 1663.003906 C -442.191406 1651.753906 -432.480469 1641.632812 -421.25 1632.449219 C -415.105469 1627.429688 -408.625 1622.859375 -401.664062 1618.585938 C -391.636719 1612.425781 -380.800781 1606.980469 -369.171875 1602.296875 C -360.796875 1598.925781 -352.011719 1596.023438 -342.917969 1593.625 C -335.695312 1591.730469 -328.28125 1590.179688 -320.730469 1588.984375 C -301.535156 1585.953125 -281.882812 1584.667969 -262.21875 1585.109375 C -243.464844 1585.527344 -225.273438 1587.476562 -207.730469 1591.105469 C -177.472656 1597.371094 -151.253906 1607.984375 -128.574219 1622.050781 C -152.5625 1613.617188 -179.640625 1609.070312 -209.230469 1608.179688 C -225.839844 1607.679688 -242.863281 1608.625 -260.164062 1610.492188 C -281.207031 1612.761719 -302.292969 1617.4375 -322.875 1622.628906 C -335.132812 1625.726562 -347.117188 1628.945312 -358.867188 1632.445312 C -374.976562 1637.238281 -390.089844 1642.230469 -404.253906 1647.933594 C -422.609375 1655.339844 -438.246094 1662.421875 -452.535156 1671.375 C -454.40625 1684.855469 -455.792969 1698.492188 -456.847656 1712.285156 C -448.613281 1700.636719 -440.398438 1690.554688 -431.101562 1681.628906 C -425.957031 1676.691406 -420.605469 1672.324219 -414.914062 1668.304688 C -406.511719 1662.367188 -397.566406 1657.34375 -388.015625 1653.164062 C -380.992188 1650.097656 -373.640625 1647.5625 -366.046875 1645.582031 C -359.949219 1643.984375 -353.6875 1642.769531 -347.304688 1641.933594 C -331.097656 1639.800781 -314.488281 1639.382812 -297.625 1640.609375 C -282.109375 1641.734375 -266.773438 1644.136719 -251.453125 1648.03125 C -227.910156 1654.015625 -205.070312 1663.234375 -183.132812 1675.453125 C -208.46875 1668.859375 -234.519531 1666.078125 -259.90625 1665.8125 C -282.703125 1665.5625 -305.085938 1668.050781 -326.886719 1672.832031 C -333.84375 1674.355469 -340.726562 1676.183594 -347.589844 1678.027344 C -351.710938 1679.128906 -356.445312 1680.453125 -360.566406 1681.554688 C -370.679688 1684.261719 -380.601562 1687.253906 -390.347656 1690.625 C -400.960938 1694.289062 -411.132812 1698.027344 -421.097656 1702.429688 C -434.015625 1708.136719 -445.691406 1713.675781 -457.46875 1720.9375 C -459.726562 1754.460938 -460.464844 1792.570312 -461.507812 1827.15625 C -462.632812 1864.488281 -464.042969 1896.910156 -466.789062 1931.753906 C -467.722656 1942.660156 -473.222656 1948.722656 -479 1944.828125 C -484.785156 1940.925781 -488.4375 1928.75 -487.367188 1918.121094 C -483.691406 1884.171875 -481.308594 1853.195312 -478.867188 1816.898438 C -476.605469 1783.273438 -474.421875 1746.730469 -470.867188 1714.011719 C -479.175781 1694.316406 -484.371094 1677.539062 -487.15625 1661.066406 C -489.882812 1644.980469 -490.394531 1630.078125 -489.644531 1615.90625 C -489.066406 1605.003906 -487.746094 1594.378906 -486.09375 1584.292969 C -483.046875 1565.640625 -479.015625 1548.585938 -476.132812 1533.167969 C -471.777344 1509.839844 -469.796875 1491.910156 -470.859375 1475.644531 C -471.886719 1459.847656 -475.753906 1447.621094 -481.558594 1437.347656 C -470.582031 1447.246094 -462.351562 1460.601562 -460.699219 1482.761719 C -459.910156 1493.371094 -460.796875 1505.105469 -462.90625 1519.085938 C -465.015625 1533.027344 -467.5 1544.148438 -470.625 1560.875 C -471.660156 1566.414062 -472.734375 1572.289062 -473.734375 1578.339844 C -474.9375 1585.675781 -476.042969 1593.386719 -476.859375 1601.515625 C -477.945312 1612.304688 -478.5 1623.75 -478.105469 1636.15625 C -477.839844 1644.457031 -477.171875 1653.1875 -476.019531 1662.488281 C -474.574219 1674.191406 -472.367188 1686.582031 -469.242188 1700.113281 C -467.269531 1684.304688 -464.828125 1668.703125 -461.683594 1653.265625 C -465.953125 1640.582031 -468.523438 1629.117188 -469.671875 1617.871094 C -470.824219 1606.597656 -470.707031 1595.933594 -469.726562 1585.546875 C -468.824219 1575.988281 -467.242188 1566.578125 -465.355469 1557.453125 C -464.542969 1553.519531 -463.625 1549.566406 -462.667969 1545.621094 C -461.132812 1539.355469 -459.457031 1533.140625 -457.800781 1526.953125 C -452.558594 1507.441406 -447.554688 1489.167969 -444.355469 1470.058594 C -440.835938 1449.03125 -439.128906 1426.890625 -442.140625 1403.820312 C -435.53125 1420.546875 -433.019531 1436.203125 -433.339844 1452.210938 C -433.542969 1462.632812 -434.972656 1473.050781 -437.128906 1483.871094 C -439.523438 1495.863281 -442.609375 1507.308594 -446.003906 1520.175781 C -447.300781 1525.105469 -448.695312 1530.332031 -450.050781 1535.578125 C -451.753906 1542.179688 -453.425781 1549.007812 -454.925781 1556.125 C -456.964844 1565.78125 -458.644531 1575.902344 -459.632812 1586.683594 C -460.300781 1593.957031 -460.652344 1601.566406 -460.644531 1609.597656 C -460.632812 1619.152344 -460.066406 1629.234375 -458.796875 1639.992188 C -456.308594 1629.328125 -453.445312 1618.773438 -450.125 1608.257812 C -453.632812 1592.539062 -454.1875 1578.207031 -452.453125 1563.433594 C -450.808594 1549.40625 -447.328125 1535.429688 -442.964844 1521.375 C -439.792969 1511.167969 -436.074219 1500.570312 -432.28125 1490.136719 C -425.8125 1472.335938 -418.90625 1454.253906 -413.617188 1436.558594 C -409.265625 1422.035156 -405.675781 1407.636719 -403.515625 1393.449219 C -399.664062 1368.132812 -400.03125 1344.234375 -405.808594 1321.28125 C -396.074219 1340.539062 -391.722656 1360.570312 -392.617188 1382.90625 C -393.140625 1395.867188 -395.445312 1409.027344 -399.035156 1422.71875 C -402.835938 1437.199219 -407.816406 1451.308594 -413.429688 1466.25 C -415.621094 1472.097656 -417.890625 1477.941406 -420.230469 1483.960938 C -423.160156 1491.507812 -426.109375 1499.160156 -428.917969 1506.949219 C -432.8125 1517.746094 -436.363281 1528.710938 -439.171875 1540.011719 C -441.125 1547.832031 -442.714844 1555.824219 -443.886719 1564.082031 C -445.339844 1574.304688 -446.085938 1584.832031 -445.972656 1595.855469 C -442.664062 1586.46875 -438.976562 1577.152344 -434.847656 1567.847656 C -435.816406 1553.875 -434.527344 1540.597656 -431.308594 1526.777344 C -428.457031 1514.554688 -424.300781 1502.230469 -419.320312 1489.535156 C -414.945312 1478.367188 -409.894531 1466.722656 -404.773438 1455.011719 C -402.613281 1450.0625 -400.410156 1445.109375 -398.15625 1440.015625 C -394.683594 1432.175781 -391.105469 1424.070312 -387.726562 1416.003906 C -377.382812 1391.359375 -368.382812 1366.253906 -363.367188 1340.597656 C -357.648438 1311.332031 -356.738281 1281.652344 -364.34375 1252.527344 C -353.019531 1275.59375 -348.9375 1298.90625 -350.3125 1322.976562 C -351.164062 1337.871094 -354.125 1352.710938 -358.472656 1367.585938 C -363.234375 1383.871094 -369.523438 1399.742188 -376.527344 1415.65625 C -379.351562 1422.089844 -382.320312 1428.523438 -385.367188 1434.976562 C -389.445312 1443.601562 -393.09375 1451.144531 -397.171875 1459.769531 C -402.703125 1471.480469 -407.988281 1483.105469 -412.664062 1494.851562 C -415.941406 1503.113281 -418.925781 1511.425781 -421.527344 1519.875 C -425.253906 1531.996094 -428.109375 1544.28125 -429.839844 1557.007812 C -424.171875 1545.226562 -417.808594 1533.515625 -410.671875 1521.792969 C -409.171875 1505.566406 -405.144531 1490.242188 -398.886719 1473.78125 C -393.9375 1460.773438 -387.816406 1447.320312 -381.320312 1433.316406 C -378.832031 1427.953125 -376.199219 1422.324219 -373.546875 1416.695312 C -370.804688 1410.855469 -368.09375 1405.066406 -365.25 1398.925781 C -359.46875 1386.441406 -353.546875 1373.1875 -348.3125 1359.652344 C -340.082031 1338.371094 -332.9375 1315.484375 -329.40625 1291.796875 C -325.71875 1267.039062 -325.421875 1240.679688 -331.683594 1213.753906 C -320.777344 1237.214844 -316.773438 1259.828125 -317.265625 1281.75 C -317.59375 1296.253906 -319.902344 1310.410156 -323.449219 1324.195312 C -327.523438 1340.074219 -333.210938 1355.402344 -339.632812 1370.28125 C -342.34375 1376.554688 -345.242188 1382.804688 -348.269531 1389.027344 C -352.21875 1397.15625 -356.386719 1405.296875 -360.546875 1413.292969 C -366.636719 1425.023438 -372.570312 1436.304688 -378.261719 1447.761719 C -382.308594 1455.914062 -386.179688 1464.070312 -389.816406 1472.246094 C -395.738281 1485.582031 -400.925781 1499 -405.023438 1512.765625 C -398.980469 1503.355469 -392.457031 1493.964844 -385.433594 1484.554688 C -382.265625 1470.136719 -377.089844 1455.984375 -370.4375 1441.332031 C -364.78125 1428.878906 -358.1875 1415.949219 -351.378906 1403.050781 C -344.972656 1390.914062 -339.105469 1379.984375 -332.660156 1367.488281 C -330.050781 1362.429688 -327.402344 1357.285156 -324.792969 1352.121094 C -320.714844 1344.046875 -316.667969 1335.832031 -312.90625 1327.652344 C -301.234375 1302.273438 -292.050781 1277.070312 -287.246094 1251.902344 C -281.632812 1222.441406 -281.523438 1193.421875 -289.609375 1165.398438 C -277.820312 1187.253906 -272.59375 1209.691406 -273.003906 1233.492188 C -273.257812 1248.078125 -275.703125 1262.863281 -279.816406 1277.964844 C -284.246094 1294.257812 -290.566406 1310.507812 -298.242188 1327.085938 C -301.308594 1333.699219 -304.628906 1340.367188 -308.183594 1347.113281 C -312.683594 1355.664062 -317.484375 1364.253906 -322.472656 1372.921875 C -329.4375 1385.027344 -336.605469 1397.097656 -343.699219 1409.335938 C -348.578125 1417.75 -353.503906 1426.390625 -358.199219 1434.957031 C -365.328125 1447.96875 -372.097656 1461.234375 -377.871094 1474.652344 C -370.261719 1464.917969 -362.136719 1455.183594 -353.496094 1445.40625 C -347.578125 1429.722656 -340.039062 1414.167969 -331.535156 1398.371094 C -324.542969 1385.386719 -316.585938 1371.3125 -309.074219 1358.035156 C -302.152344 1345.789062 -295.445312 1333.75 -288.855469 1321.222656 C -286.125 1316.039062 -283.371094 1310.78125 -280.6875 1305.496094 C -276.519531 1297.292969 -272.414062 1288.949219 -268.648438 1280.617188 C -257.429688 1255.78125 -248.570312 1230.3125 -244.566406 1204.515625 C -240.277344 1176.90625 -240.730469 1147.882812 -250.511719 1118.671875 C -236.976562 1141.085938 -230.894531 1163.164062 -229.898438 1185.179688 C -229.222656 1199.882812 -230.914062 1214.59375 -234.230469 1229.324219 C -237.976562 1245.980469 -243.886719 1262.628906 -251.292969 1279.390625 C -254.332031 1286.265625 -257.707031 1293.207031 -261.367188 1300.214844 C -266.042969 1309.167969 -271.15625 1318.199219 -276.574219 1327.304688 C -284.207031 1340.113281 -292.207031 1352.765625 -300.5625 1365.773438 C -306.902344 1375.640625 -311.566406 1382.816406 -318.039062 1392.855469 C -326.894531 1406.589844 -335.953125 1420.867188 -344.15625 1435.023438 C -331.867188 1421.621094 -318.710938 1408.207031 -304.738281 1394.691406 C -297.992188 1379.234375 -289.972656 1363.539062 -281.132812 1347.359375 C -273.21875 1332.890625 -266.457031 1320.75 -258.535156 1306.28125 C -251.679688 1293.753906 -245.089844 1281.347656 -238.730469 1268.5625 C -236.074219 1263.230469 -233.414062 1257.84375 -230.820312 1252.433594 C -226.761719 1243.976562 -222.816406 1235.460938 -219.226562 1226.988281 C -208.082031 1200.695312 -200.171875 1175.132812 -196.851562 1150.375 C -192.839844 1120.542969 -194.839844 1092.492188 -204.464844 1066.640625 C -191.167969 1086.492188 -183.632812 1107.785156 -181.667969 1131.402344 C -180.5 1145.496094 -181.46875 1160.0625 -184.21875 1175.257812 C -187.160156 1191.488281 -192.136719 1208.074219 -198.925781 1225.253906 C -201.632812 1232.117188 -204.707031 1239.089844 -208.125 1246.179688 C -212.46875 1255.191406 -217.3125 1264.339844 -222.582031 1273.597656 C -230 1286.640625 -238.007812 1299.648438 -246.523438 1312.890625 C -252.519531 1322.21875 -258.5 1331.257812 -264.839844 1340.671875 C -274.414062 1354.886719 -285.234375 1370.710938 -294.558594 1384.949219 C -289.917969 1380.566406 -285.199219 1376.164062 -280.40625 1371.773438 C -274.402344 1366.257812 -268.296875 1360.765625 -262.089844 1355.234375 C -253.644531 1336.496094 -242.710938 1316.277344 -232.210938 1297.851562 C -221.265625 1278.625 -215.269531 1268.265625 -205.191406 1250.265625 C -198.367188 1238.074219 -192.277344 1226.910156 -186.429688 1215.839844 C -175.546875 1195.238281 -166.769531 1177.066406 -160.933594 1161.34375 C -145.335938 1119.320312 -146.054688 1091.597656 -155.207031 1063.996094 C -141.453125 1082.273438 -133.128906 1099.773438 -135.328125 1127.96875 C -136.453125 1142.324219 -140.734375 1159.453125 -148.679688 1180.273438 C -151.472656 1187.59375 -154.8125 1195.347656 -158.816406 1203.683594 C -161.195312 1208.632812 -163.832031 1213.78125 -166.789062 1219.148438 C -173.277344 1230.925781 -180.726562 1243.371094 -189.429688 1256.792969 C -198.285156 1270.453125 -207.765625 1284.179688 -218.511719 1299.28125 C -229.523438 1314.761719 -241.261719 1330.605469 -252.894531 1347.121094 C -238.371094 1334.378906 -223.363281 1321.597656 -208.070312 1308.832031 C -203.789062 1300.933594 -199.574219 1292.695312 -194.570312 1283.273438 C -188.289062 1271.457031 -179.070312 1253.765625 -171.417969 1239.054688 C -168.269531 1233.003906 -163.570312 1223.890625 -160.421875 1217.847656 C -154.726562 1206.917969 -149.121094 1195.714844 -143.304688 1184.074219 C -139.164062 1175.792969 -134.964844 1167.519531 -130.875 1159.082031 C -126.636719 1150.347656 -122.453125 1141.625 -118.613281 1133.054688 C -109.933594 1113.648438 -102.9375 1095.613281 -98.214844 1079.417969 C -88.742188 1046.949219 -88.179688 1024.503906 -97.761719 1021.050781 C -86.261719 1019.210938 -79.871094 1036.421875 -81.054688 1063.269531 C -81.546875 1074.367188 -83.507812 1086.859375 -86.828125 1100.734375 C -90.136719 1114.542969 -94.703125 1129.101562 -100.625 1144.386719 C -102.996094 1150.492188 -105.636719 1156.703125 -108.582031 1163.015625 C -112.417969 1171.242188 -116.675781 1179.550781 -121.253906 1187.863281 C -128.113281 1200.300781 -135.492188 1212.519531 -143.136719 1224.445312 C -149.003906 1233.609375 -154.917969 1242.386719 -160.988281 1251.007812 C -173.847656 1269.28125 -186.535156 1285.980469 -198.03125 1300.492188 C -184.917969 1289.640625 -171.59375 1278.773438 -158.257812 1267.976562 C -153.898438 1259.847656 -149.496094 1250.945312 -144.613281 1241.285156 C -137.847656 1227.886719 -130.058594 1211.699219 -122.390625 1195.542969 C -118.808594 1187.996094 -115.742188 1181.414062 -112.15625 1173.867188 C -106.894531 1162.777344 -101.742188 1151.355469 -96.441406 1139.675781 C -92.632812 1131.289062 -88.808594 1123.066406 -85.066406 1114.585938 C -81.199219 1105.839844 -77.390625 1097.160156 -73.917969 1088.640625 C -66.078125 1069.382812 -59.859375 1051.644531 -55.824219 1035.914062 C -47.742188 1004.429688 -47.886719 983.167969 -57.804688 980.597656 C -46.039062 978.039062 -38.917969 993.703125 -38.441406 1019.179688 C -38.242188 1029.714844 -39.394531 1041.75 -41.800781 1055.273438 C -44.191406 1068.714844 -47.792969 1083.125 -52.789062 1098.410156 C -54.777344 1104.515625 -57.070312 1110.769531 -59.675781 1117.144531 C -63.082031 1125.460938 -66.953125 1133.921875 -71.203125 1142.429688 C -77.566406 1155.148438 -84.578125 1167.726562 -92 1180.078125 C -97.703125 1189.566406 -103.527344 1198.6875 -109.59375 1207.664062 C -122.515625 1226.789062 -135.457031 1244.105469 -147.59375 1259.371094 C -127.355469 1243.0625 -105.488281 1225.601562 -85.644531 1209.738281 C -85.710938 1209.511719 -85.652344 1209.191406 -85.433594 1208.792969 C -82.59375 1200.480469 -79.914062 1192.570312 -76.855469 1184.523438 C -71.796875 1171.207031 -66.425781 1157.472656 -61.5625 1145.371094 C -59.015625 1139.039062 -56.582031 1133.042969 -54.035156 1127.023438 C -49.753906 1116.917969 -45.921875 1107.535156 -42.121094 1098.628906 C -39.066406 1091.464844 -35.972656 1084.636719 -33.25 1078.285156 C -30.066406 1070.863281 -27.074219 1064.066406 -24.621094 1057.839844 C -18.074219 1041.160156 -14.214844 1028.957031 -13.0625 1019.644531 C -10.921875 1002.433594 -14.929688 993.757812 -20.519531 982.789062 C -11.921875 986.121094 -4.996094 988.28125 0.441406 994.359375 C 3.894531 998.222656 5.972656 1003.679688 7.128906 1011.628906 C 8.441406 1020.597656 7.628906 1032.945312 4.078125 1050.324219 C 2.933594 1055.917969 1.359375 1062.066406 -0.789062 1068.921875 C -2.03125 1072.902344 -3.527344 1077.144531 -5.34375 1081.65625 C -9.265625 1091.371094 -14.144531 1102.121094 -20.351562 1113.9375 C -26.597656 1125.8125 -33.945312 1138.417969 -42.742188 1152.25 C -53.21875 1168.726562 -64.984375 1185.335938 -78.3125 1203.875 C -58.035156 1187.660156 -39.085938 1172.457031 -20.167969 1157.109375 C -20.621094 1156.953125 -20.746094 1156.492188 -20.417969 1155.792969 C -18.34375 1147.3125 -16.550781 1139.324219 -14.351562 1131.003906 C -10.867188 1117.832031 -7.421875 1104.59375 -3.992188 1092.105469 C -2.316406 1086.007812 -0.714844 1080.210938 1.082031 1074.207031 C 3.917969 1064.730469 6.484375 1055.65625 9.289062 1046.640625 C 11.390625 1039.902344 13.699219 1033.203125 15.820312 1026.726562 C 18.121094 1019.703125 20.460938 1012.933594 22.523438 1006.367188 C 27.246094 991.320312 30.988281 977.972656 33.46875 965.847656 C 37.433594 946.488281 39.046875 931.039062 37.894531 918.234375 C 43.78125 925.683594 48.15625 934.808594 51.097656 947.785156 C 52.742188 955.058594 53.617188 963.195312 53.894531 972.816406 C 54.179688 982.441406 53.71875 993.183594 52.082031 1005.550781 C 51.453125 1010.296875 50.539062 1015.320312 49.285156 1020.644531 C 47.710938 1027.28125 45.667969 1034.332031 43.117188 1041.757812 C 39.578125 1052.035156 35.242188 1062.820312 30.03125 1074.253906 C 26.402344 1082.210938 22.445312 1090.210938 17.910156 1098.65625 C 8.507812 1116.148438 -2.136719 1133.527344 -14.175781 1152.238281 C -0.878906 1141.414062 11.679688 1131.101562 23.933594 1120.933594 C 23.371094 1120.808594 23.25 1120.257812 23.691406 1119.472656 C 31.875 1098.824219 38.464844 1080.394531 45.5 1062.089844 C 50.820312 1048.269531 55.800781 1034.824219 60.394531 1022.558594 C 63.804688 1013.457031 67.070312 1004.65625 70.164062 996.308594 C 75.363281 982.273438 80.042969 969.628906 82.984375 957.703125 C 88.585938 934.953125 90.160156 916.007812 86.097656 897.761719 C 95.785156 906.070312 101.761719 915.757812 104.648438 929.796875 C 106.679688 939.683594 106.566406 951.390625 104.925781 965.148438 C 104.253906 970.765625 103.15625 976.742188 101.59375 983.144531 C 100.628906 987.121094 99.433594 991.28125 97.957031 995.605469 C 94.605469 1005.425781 90.332031 1015.964844 84.902344 1027.199219 C 79.195312 1039.007812 72.378906 1051.355469 64.292969 1064.597656 C 54.1875 1081.125 42.375 1098.148438 29.183594 1116.582031 C 54.027344 1095.902344 75.167969 1077.835938 94.441406 1061.03125 C 93.746094 1060.996094 93.488281 1060.433594 93.859375 1059.601562 C 97.382812 1044.015625 99.6875 1030.949219 102.890625 1017.550781 C 105.328125 1007.320312 107.414062 998.398438 109.820312 989.296875 C 111.527344 982.84375 113.234375 976.679688 114.992188 970.691406 C 117.941406 960.675781 120.9375 951.746094 122.625 943.074219 C 125.867188 926.410156 126.808594 912.605469 123.546875 898.835938 C 130.019531 902.097656 134.691406 906.078125 138.574219 911.878906 C 141.460938 916.207031 143.195312 921.332031 144.578125 927.382812 C 146.128906 934.140625 146.542969 941.902344 146.003906 951 C 145.796875 954.503906 145.304688 958.25 144.511719 962.226562 C 143.550781 967.09375 142.175781 972.289062 140.347656 977.773438 C 137.882812 985.160156 134.773438 992.929688 130.910156 1001.28125 C 128.289062 1006.953125 125.417969 1012.640625 122.058594 1018.746094 C 115.34375 1030.980469 107.476562 1043.582031 98.566406 1057.425781 C 119.371094 1039.234375 136.242188 1024.042969 149 1012.785156 C 148.449219 1012.671875 148.222656 1012.15625 148.488281 1011.414062 C 150.890625 996.308594 152.417969 982.332031 154.820312 967.226562 C 156.539062 956.441406 157.921875 947.328125 159.582031 937.84375 C 160.75 931.132812 161.917969 924.773438 163.121094 918.613281 C 165.128906 908.316406 167.164062 899.179688 167.96875 890.394531 C 169.476562 873.707031 168.847656 859.988281 164.289062 847.003906 C 170.722656 850.054688 175.59375 854.046875 179.726562 859.863281 C 182.804688 864.195312 184.90625 869.386719 186.695312 875.523438 C 188.691406 882.382812 189.742188 890.308594 189.945312 899.59375 C 190.03125 903.179688 189.859375 907.011719 189.4375 911.085938 C 188.917969 916.074219 188.035156 921.402344 186.746094 927.027344 C 185.003906 934.609375 182.65625 942.625 179.628906 951.222656 C 177.578125 957.054688 175.257812 962.960938 172.523438 969.253906 C 166.988281 981.984375 160.277344 995.1875 152.5625 1009.691406 C 160.773438 1002.488281 167.113281 997.101562 171.421875 993.9375 C 173.695312 987.316406 175.851562 981.132812 178.554688 974.28125 C 179.804688 971.109375 181.097656 968.058594 182.53125 964.851562 C 184.421875 960.617188 186.394531 956.433594 188.582031 952.167969 C 190.023438 949.347656 191.5625 946.53125 193.183594 943.730469 C 194.414062 941.632812 195.695312 939.554688 197.039062 937.488281 C 200.207031 932.617188 203.410156 927.984375 206.800781 923.222656 C 209.71875 919.125 212.480469 915.351562 215.5 911.335938 C 220.117188 905.21875 224.089844 900.195312 228.796875 894.203125 C 225.914062 900.824219 223.359375 907 220.515625 913.511719 C 218.679688 917.710938 216.839844 921.953125 214.945312 926.09375 C 212.753906 930.90625 210.59375 935.710938 208.269531 940.453125 C 207.277344 942.476562 206.257812 944.484375 205.15625 946.480469 C 203.695312 949.140625 202.152344 951.765625 200.558594 954.386719 C 198.132812 958.351562 195.609375 962.242188 193.023438 966.148438 C 189.105469 972.0625 184.917969 977.980469 180.855469 983.835938 C 179.125 986.328125 177.390625 988.769531 175.679688 991.175781 C 176.140625 990.941406 176.558594 990.746094 176.898438 990.652344 C 176.902344 990.660156 176.929688 990.660156 176.964844 990.648438 Z M 176.964844 990.648438 " fill-opacity="1" fill-rule="evenodd"/></g></g></g><g clip-path="url(#590e48897e)"><path fill="#000000" d="M 944.132812 436.804688 C 952.675781 432.535156 946.269531 403.347656 944.84375 394.808594 C 939.148438 354.941406 915.660156 309.382812 894.304688 275.214844 C 868.675781 234.636719 836.640625 200.46875 799.625 170.570312 C 767.59375 143.519531 736.269531 119.316406 695.695312 107.925781 C 712.066406 108.640625 725.59375 120.027344 739.117188 129.285156 C 753.355469 139.25 766.878906 147.078125 778.980469 160.605469 C 802.472656 186.945312 827.386719 213.28125 848.03125 241.757812 C 869.386719 271.65625 891.457031 302.265625 908.539062 334.300781 C 923.488281 362.0625 937.015625 386.265625 940.574219 418.296875 C 941.285156 424.703125 941.285156 431.824219 941.996094 438.230469 L 941.996094 437.519531 L 942.710938 436.804688 C 944.132812 437.519531 944.84375 437.519531 944.84375 437.519531 " fill-opacity="1" fill-rule="nonzero"/></g><g clip-path="url(#61e57adcd7)"><path fill="#000000" d="M 738.007812 128.296875 C 705.972656 125.449219 669.667969 110.5 639.058594 91.28125 C 628.378906 84.875 617.703125 77.753906 605.601562 76.332031 C 626.242188 66.363281 653.292969 82.027344 673.9375 87.722656 C 697.429688 94.839844 725.90625 105.515625 737.292969 128.296875 " fill-opacity="1" fill-rule="nonzero"/></g><g clip-path="url(#267a90283f)"><path fill="#000000" d="M 741.566406 128.296875 C 739.429688 127.585938 735.871094 122.601562 733.023438 118.332031 C 716.648438 95.550781 708.820312 69.925781 688.175781 49.28125 C 686.039062 46.433594 683.191406 44.296875 680.34375 42.160156 C 704.546875 46.433594 722.34375 67.078125 733.734375 87.007812 C 738.71875 96.261719 745.125 108.363281 744.414062 119.042969 C 744.414062 123.3125 742.277344 131.144531 741.566406 129.007812 " fill-opacity="1" fill-rule="nonzero"/></g><path fill="#000000" d="M 742.277344 131.144531 C 743.699219 131.855469 742.988281 131.855469 742.988281 131.855469 C 735.160156 128.296875 722.34375 129.71875 713.089844 131.144531 C 684.617188 136.128906 657.566406 141.820312 628.378906 145.382812 C 626.242188 145.382812 623.398438 145.382812 621.261719 145.382812 C 644.039062 154.636719 663.972656 158.195312 688.175781 151.789062 C 707.394531 146.804688 724.480469 133.28125 744.414062 130.433594 " fill-opacity="1" fill-rule="nonzero"/><path fill="#000000" d="M 768.316406 148.046875 C 770.097656 148.851562 769.222656 148.882812 769.222656 148.882812 C 759.441406 144.894531 743.785156 147.257812 732.496094 149.453125 C 697.792969 156.941406 664.871094 165.234375 629.222656 171.007812 C 626.601562 171.113281 623.109375 171.25 620.488281 171.351562 C 648.890625 181.609375 673.523438 185.019531 702.914062 175.988281 C 726.261719 168.945312 746.578125 151.523438 770.902344 147.070312 " fill-opacity="1" fill-rule="nonzero"/><path fill="#000000" d="M 793.328125 168.574219 C 795.199219 169.347656 794.296875 169.414062 794.296875 169.414062 C 784.050781 165.601562 767.9375 168.554688 756.332031 171.1875 C 720.6875 180.054688 686.910156 189.699219 650.234375 196.824219 C 647.527344 197.015625 643.917969 197.273438 641.210938 197.464844 C 670.914062 207.152344 696.496094 209.878906 726.601562 199.589844 C 750.519531 191.550781 770.960938 172.875 795.972656 167.480469 " fill-opacity="1" fill-rule="nonzero"/><path fill="#000000" d="M 812.039062 189.515625 C 809.902344 190.941406 800.648438 190.230469 795.667969 190.230469 C 765.058594 192.363281 738.007812 210.160156 708.820312 217.28125 C 687.464844 222.261719 663.261719 225.109375 643.328125 235.789062 C 657.566406 236.5 670.378906 242.195312 683.90625 243.617188 C 697.429688 245.042969 710.957031 240.769531 723.769531 235.074219 C 751.53125 223.6875 778.582031 208.023438 804.207031 193.074219 C 806.34375 192.363281 809.191406 190.941406 811.328125 190.230469 " fill-opacity="1" fill-rule="nonzero"/><path fill="#000000" d="M 836.242188 217.992188 C 822.003906 207.3125 793.53125 218.703125 776.445312 225.109375 C 747.972656 235.789062 718.785156 252.160156 688.175781 254.296875 C 683.191406 254.296875 677.496094 254.296875 671.804688 254.296875 C 696.007812 269.957031 729.464844 272.09375 755.089844 259.992188 C 779.292969 247.890625 807.054688 222.261719 834.105469 217.992188 C 834.820312 217.992188 837.667969 217.992188 836.953125 217.992188 " fill-opacity="1" fill-rule="nonzero"/><path fill="#000000" d="M 859.734375 247.890625 C 860.445312 248.601562 860.445312 249.3125 861.15625 250.023438 L 861.871094 250.023438 L 861.871094 249.3125 C 861.871094 249.3125 861.871094 250.023438 862.582031 249.3125 C 836.242188 230.804688 802.074219 255.71875 777.871094 267.109375 C 752.953125 278.5 723.769531 289.175781 696.007812 287.753906 C 683.191406 287.042969 671.089844 284.90625 658.988281 282.058594 C 683.90625 295.582031 713.804688 310.53125 743.699219 304.839844 C 772.886719 299.855469 801.363281 277.789062 826.988281 262.839844 C 841.226562 254.296875 852.617188 246.464844 866.851562 250.023438 " fill-opacity="1" fill-rule="nonzero"/><path fill="#000000" d="M 881.800781 277.074219 C 825.566406 277.074219 778.582031 309.109375 725.191406 321.921875 C 717.363281 323.347656 709.53125 325.480469 701.703125 326.195312 C 729.464844 324.769531 755.089844 339.007812 782.851562 333.3125 C 814.175781 326.90625 839.089844 304.125 864.71875 287.042969 C 870.410156 283.480469 879.667969 277.074219 884.648438 277.789062 " fill-opacity="1" fill-rule="nonzero"/><path fill="#000000" d="M 904.582031 313.378906 C 897.460938 314.09375 873.257812 314.804688 860.445312 319.074219 C 829.125 329.042969 800.648438 345.414062 768.617188 352.53125 C 745.125 358.226562 720.921875 356.804688 696.007812 360.363281 C 722.34375 362.5 749.394531 375.3125 777.871094 374.601562 C 807.054688 373.886719 834.105469 358.226562 859.023438 343.277344 C 874.683594 334.734375 890.34375 320.5 905.292969 313.378906 " fill-opacity="1" fill-rule="nonzero"/><path fill="#000000" d="M 768.828125 148.394531 C 767.15625 146.890625 765.875 140.902344 764.964844 135.851562 C 759.023438 108.433594 762.050781 81.808594 751.339844 54.652344 C 750.515625 51.1875 748.753906 48.09375 746.996094 45.003906 C 767.492188 58.5625 775.589844 84.585938 778.097656 107.40625 C 778.980469 117.878906 780.035156 131.53125 775.128906 141.042969 C 773.425781 144.960938 768.347656 151.292969 768.546875 149.050781 " fill-opacity="1" fill-rule="nonzero"/><path fill="#000000" d="M 786.753906 163.140625 C 785.535156 161.144531 786.15625 154.527344 786.851562 148.988281 C 789.609375 118.675781 801.207031 91.433594 799.046875 60.203125 C 799.320312 56.355469 798.523438 52.664062 797.730469 48.972656 C 814.175781 68.339844 814.054688 97.726562 809.285156 122.347656 C 806.824219 133.582031 803.519531 148.199219 795.496094 156.980469 C 792.515625 160.675781 785.335938 166.066406 786.253906 163.757812 " fill-opacity="1" fill-rule="nonzero"/><path fill="#000000" d="M 806.003906 181.089844 C 804.898438 178.855469 806.25 171.710938 807.570312 165.742188 C 813.675781 133.023438 828.992188 104.125 829.886719 70.136719 C 830.578125 65.980469 830.101562 61.929688 829.628906 57.882812 C 845.355469 79.804688 842.1875 111.667969 834.503906 138.105469 C 830.691406 150.152344 825.621094 165.820312 816.066406 174.894531 C 812.46875 178.734375 804.175781 184.183594 805.402344 181.730469 " fill-opacity="1" fill-rule="nonzero"/><g clip-path="url(#19221be692)"><g clip-path="url(#294a8eb568)"><g clip-path="url(#2a6b145094)"><g clip-path="url(#2156561fbb)"><path fill="#000000" d="M 451.574219 1235.6875 C 440.058594 1215.5 430.265625 1194.515625 422.183594 1172.726562 C 410.902344 1142.960938 409.417969 1121.660156 417.53125 1105.664062 C 424.898438 1091.121094 439.148438 1082.847656 454.230469 1074.101562 C 479.953125 1059.167969 509.105469 1042.234375 513.769531 988.417969 C 516.496094 956.730469 534.417969 925.8125 565.46875 899.148438 C 592.742188 875.738281 628.800781 856.816406 667.015625 845.867188 C 730.875 827.613281 784.734375 835.179688 807.648438 865.695312 C 863.917969 940.617188 864.0625 1029.046875 808.035156 1096.40625 C 787.503906 1121.09375 781.179688 1153 774.488281 1186.78125 C 763.363281 1242.914062 751.851562 1300.953125 671.652344 1325.0625 C 611.105469 1343.277344 558.800781 1337.765625 516.191406 1308.722656 C 491.648438 1292 470.257812 1267.863281 451.574219 1235.6875 Z M 815.898438 892.832031 C 811.417969 885.128906 806.496094 877.714844 801.140625 870.589844 C 790.707031 856.703125 772.40625 847.921875 748.191406 845.199219 C 725.03125 842.601562 697.730469 845.53125 669.253906 853.6875 C 632.152344 864.324219 597.167969 882.664062 570.777344 905.320312 C 541.367188 930.574219 524.480469 959.5625 521.882812 989.179688 C 516.867188 1047.238281 484.414062 1066.015625 458.289062 1081.160156 C 428.722656 1098.332031 407.367188 1110.730469 429.773438 1169.851562 C 437.632812 1191.027344 447.160156 1211.421875 458.359375 1231.035156 C 508.078125 1316.648438 577.527344 1344.871094 669.273438 1317.285156 C 703.640625 1306.945312 726.722656 1289.894531 742 1263.578125 C 755.5625 1240.234375 761.109375 1212.265625 766.476562 1185.222656 C 773.089844 1151.910156 779.929688 1117.476562 801.816406 1091.183594 C 849.828125 1033.429688 854.515625 959.328125 815.898438 892.832031 Z M 815.898438 892.832031 " fill-opacity="1" fill-rule="nonzero"/></g></g></g></g><g clip-path="url(#02dac0a9af)"><g clip-path="url(#414bb921bb)"><g clip-path="url(#9b2c42e0dd)"><g clip-path="url(#eca83ebc96)"><path fill="#000000" d="M 468.8125 1184.519531 C 463.890625 1176.039062 460.351562 1167.910156 458.792969 1160.640625 C 456.464844 1149.886719 458.324219 1141.289062 464.253906 1135.117188 C 471.8125 1127.28125 482.613281 1118.953125 494.121094 1110.078125 C 527.957031 1083.972656 570.070312 1051.488281 558.972656 1009.417969 C 552.914062 986.464844 559.933594 960.546875 578.742188 936.417969 C 605.613281 901.980469 650.988281 878.175781 689.140625 878.574219 C 733.710938 879.054688 763.355469 888.1875 777.234375 905.710938 C 785.308594 915.910156 787.71875 928.605469 784.371094 943.488281 C 781.78125 955.253906 774.113281 972.175781 764.371094 993.636719 C 741.128906 1044.941406 705.972656 1122.492188 716.535156 1191.222656 C 720.417969 1216.582031 718.859375 1251.742188 689.375 1275.242188 C 658.6875 1299.679688 611.296875 1300.6875 582.320312 1289.191406 C 551.136719 1276.875 492.972656 1226.121094 468.8125 1184.519531 Z M 566.808594 1007.355469 C 579.296875 1054.65625 534.804688 1088.96875 499.050781 1116.550781 C 487.820312 1125.207031 477.222656 1133.394531 470.117188 1140.761719 C 466.117188 1144.929688 465.007812 1150.855469 466.730469 1158.871094 C 475.460938 1199.164062 550.097656 1267.671875 585.265625 1281.601562 C 612.507812 1292.386719 656.96875 1290.578125 684.1875 1268.878906 C 705.421875 1251.960938 713.5625 1226.265625 708.382812 1192.472656 C 697.480469 1121.332031 733.207031 1042.46875 756.84375 990.289062 C 765.988281 970.117188 773.875 952.691406 776.320312 941.722656 C 779.074219 929.363281 777.195312 918.96875 770.710938 910.789062 C 758.59375 895.511719 730.3125 887.175781 688.917969 886.734375 C 653.167969 886.351562 610.457031 908.839844 585.054688 941.425781 C 567.910156 963.511719 561.414062 986.921875 566.808594 1007.355469 Z M 566.808594 1007.355469 " fill-opacity="1" fill-rule="nonzero"/></g></g></g></g><g clip-path="url(#3acd023b4b)"><g clip-path="url(#75eedc7d3f)"><g clip-path="url(#bc928c4145)"><g clip-path="url(#9084d54d0a)"><path fill="#000000" d="M 418.21875 1251.871094 C 397.902344 1216.886719 381.765625 1179.617188 375.417969 1152.191406 C 360.472656 1087.632812 381.96875 1034.71875 434.40625 1007.011719 C 477.929688 984.011719 481.179688 970.140625 490.855469 928.960938 C 492.203125 923.242188 493.722656 916.75 495.476562 909.757812 C 506.90625 864.117188 539.519531 827.398438 589.796875 803.554688 C 622.734375 787.921875 662.691406 778.585938 702.269531 777.246094 C 740.738281 776.007812 776.632812 782.226562 803.308594 794.816406 C 840.574219 812.34375 864.828125 842.308594 877.453125 886.410156 C 888.019531 923.152344 888.113281 961.753906 888.226562 992.742188 C 888.238281 996.40625 888.25 999.949219 888.289062 1003.332031 C 888.519531 1028.308594 872.949219 1051.878906 854.925781 1079.195312 C 828.835938 1118.691406 796.375 1167.859375 797.394531 1243.070312 C 797.914062 1281.34375 781.609375 1312.640625 748.9375 1336.09375 C 720.558594 1356.445312 679.457031 1370.253906 633.203125 1374.976562 C 594.097656 1378.964844 554.367188 1375.941406 529.382812 1367.167969 C 498.53125 1356.289062 463.808594 1323.097656 431.597656 1273.703125 C 427.003906 1266.578125 422.515625 1259.273438 418.21875 1251.871094 Z M 854.359375 851.882812 C 851.253906 846.453125 847.742188 841.292969 843.832031 836.40625 C 839.921875 831.523438 835.65625 826.96875 831.035156 822.746094 C 826.414062 818.527344 821.492188 814.6875 816.273438 811.234375 C 811.054688 807.78125 805.597656 804.75 799.90625 802.144531 C 774.328125 790.101562 739.769531 784.167969 702.578125 785.402344 C 664.023438 786.703125 625.246094 795.746094 593.292969 810.898438 C 559.824219 826.769531 517.074219 857.148438 503.398438 911.722656 C 501.660156 918.648438 500.152344 925.109375 498.800781 930.800781 C 489.0625 972.289062 485.027344 989.464844 438.226562 1014.195312 C 389.316406 1040.042969 369.320312 1089.664062 383.375 1150.339844 C 390.863281 1182.722656 412.496094 1229.382812 438.46875 1269.203125 C 469.714844 1317.097656 502.980469 1349.144531 532.148438 1359.441406 C 578.648438 1375.855469 684.410156 1372.339844 744.238281 1329.460938 C 774.636719 1307.652344 789.78125 1278.628906 789.296875 1243.171875 C 788.210938 1165.390625 821.484375 1115.132812 848.167969 1074.671875 C 865.453125 1048.496094 880.390625 1025.875 880.179688 1003.386719 C 880.148438 999.992188 880.125 996.449219 880.117188 992.757812 C 880.011719 962.261719 879.867188 924.308594 869.660156 888.636719 C 866.082031 875.75 860.984375 863.5 854.359375 851.882812 Z M 854.359375 851.882812 " fill-opacity="1" fill-rule="nonzero"/></g></g></g></g><g clip-path="url(#141e51757c)"><g clip-path="url(#d588754ee9)"><g clip-path="url(#25916e7dbc)"><g clip-path="url(#2fc1373f33)"><path fill="#000000" d="M 518.171875 1173.230469 C 516.4375 1170.425781 515.066406 1167.449219 514.066406 1164.300781 C 513.0625 1161.15625 512.457031 1157.9375 512.25 1154.640625 C 511.84375 1144.117188 516.726562 1133.898438 526.800781 1124.292969 C 538.355469 1113.28125 550.0625 1103.65625 561.386719 1094.351562 C 591.160156 1069.894531 614.667969 1050.566406 607.984375 1026.75 C 599.019531 994.769531 611.878906 964.464844 627.625 949.847656 C 637.40625 940.761719 648.253906 937.449219 657.347656 940.777344 C 664.824219 943.480469 674.394531 951.777344 677.484375 975.941406 C 681.289062 1005.664062 677.519531 1029.050781 673.867188 1051.65625 C 668.621094 1084.195312 663.660156 1114.933594 681.128906 1162.460938 C 688.679688 1183.015625 690.316406 1201.6875 685.964844 1217.945312 C 682.09375 1232.300781 673.753906 1243.960938 661.753906 1251.546875 C 660.429688 1252.382812 659.074219 1253.164062 657.683594 1253.882812 C 656.292969 1254.605469 654.875 1255.265625 653.429688 1255.867188 C 651.984375 1256.472656 650.515625 1257.011719 649.023438 1257.488281 C 647.53125 1257.964844 646.023438 1258.378906 644.496094 1258.730469 C 642.96875 1259.082031 641.429688 1259.367188 639.878906 1259.585938 C 638.332031 1259.804688 636.773438 1259.960938 635.210938 1260.050781 C 633.644531 1260.140625 632.082031 1260.164062 630.515625 1260.117188 C 628.949219 1260.074219 627.390625 1259.96875 625.835938 1259.792969 C 624.277344 1259.617188 622.730469 1259.378906 621.195312 1259.070312 C 619.660156 1258.765625 618.140625 1258.398438 616.636719 1257.964844 C 615.132812 1257.527344 613.648438 1257.03125 612.1875 1256.472656 C 610.722656 1255.914062 609.285156 1255.296875 607.875 1254.613281 C 606.46875 1253.933594 605.089844 1253.195312 603.742188 1252.398438 C 602.394531 1251.601562 601.082031 1250.75 599.804688 1249.84375 C 598.53125 1248.933594 597.292969 1247.976562 596.101562 1246.964844 C 594.90625 1245.953125 593.757812 1244.890625 592.652344 1243.78125 C 584.234375 1235.222656 573.425781 1226.433594 562.992188 1217.964844 C 545.355469 1203.566406 527.246094 1188.851562 518.171875 1173.230469 Z M 663.429688 956.558594 C 661.027344 952.425781 658.070312 949.648438 654.652344 948.394531 C 648.484375 946.164062 640.664062 948.851562 633.203125 955.792969 C 619.210938 968.773438 607.8125 995.835938 615.863281 1024.53125 C 623.972656 1053.445312 597.378906 1075.320312 566.578125 1100.628906 C 555.367188 1109.828125 543.808594 1119.355469 532.449219 1130.171875 C 524.027344 1138.199219 520.09375 1146.089844 520.417969 1154.296875 C 521.171875 1173.386719 545.082031 1192.804688 568.207031 1211.585938 C 578.820312 1220.21875 589.785156 1229.117188 598.542969 1238.035156 C 599.488281 1238.980469 600.46875 1239.882812 601.488281 1240.746094 C 602.507812 1241.605469 603.5625 1242.425781 604.648438 1243.195312 C 605.738281 1243.96875 606.855469 1244.695312 608.007812 1245.375 C 609.15625 1246.054688 610.332031 1246.683594 611.535156 1247.261719 C 612.738281 1247.839844 613.960938 1248.367188 615.210938 1248.84375 C 616.457031 1249.320312 617.722656 1249.742188 619.007812 1250.113281 C 620.289062 1250.480469 621.585938 1250.796875 622.894531 1251.054688 C 624.207031 1251.316406 625.523438 1251.519531 626.851562 1251.667969 C 628.179688 1251.816406 629.507812 1251.910156 630.84375 1251.945312 C 632.179688 1251.980469 633.511719 1251.960938 634.847656 1251.886719 C 636.179688 1251.808594 637.507812 1251.675781 638.828125 1251.488281 C 640.152344 1251.300781 641.464844 1251.054688 642.765625 1250.757812 C 644.066406 1250.457031 645.351562 1250.105469 646.625 1249.695312 C 647.894531 1249.289062 649.148438 1248.828125 650.382812 1248.316406 C 651.613281 1247.800781 652.824219 1247.238281 654.007812 1246.621094 C 655.195312 1246.007812 656.351562 1245.34375 657.480469 1244.628906 C 680.472656 1230.066406 686.480469 1200.390625 673.570312 1165.226562 C 655.367188 1115.6875 660.726562 1082.460938 665.917969 1050.3125 C 669.46875 1028.277344 673.136719 1005.488281 669.496094 976.949219 C 668.359375 968.410156 666.304688 961.507812 663.429688 956.558594 Z M 663.429688 956.558594 " fill-opacity="1" fill-rule="nonzero"/></g></g></g></g><g clip-path="url(#2d7eb1a1e6)"><g clip-path="url(#0ecc518cc8)"><g clip-path="url(#fa3e953229)"><g clip-path="url(#662044914b)"><path fill="#000000" d="M 385.507812 1323.804688 C 371.980469 1300.511719 362.039062 1275.1875 354.898438 1252.554688 C 333.671875 1185.457031 327.390625 1114.605469 328.589844 1070.695312 C 330.039062 1017.828125 367.675781 985.050781 400.824219 956.117188 C 427.539062 932.898438 452.769531 910.953125 456.085938 881.996094 C 462.332031 827.511719 514.695312 801.261719 587.164062 764.933594 C 608.570312 754.195312 630.710938 743.101562 654.28125 729.992188 C 738.878906 683.097656 786.953125 723.15625 859.734375 783.8125 C 878.6875 799.597656 900.175781 817.503906 924.398438 835.609375 C 961.980469 863.683594 975.605469 900.816406 966.089844 949.113281 C 957.882812 990.597656 934.390625 1033.5625 911.59375 1075.164062 C 892.4375 1110.164062 874.390625 1143.1875 868.90625 1170.054688 C 858.382812 1221.898438 838.40625 1266.101562 807.808594 1305.132812 C 781.667969 1338.484375 748.296875 1367.738281 702.808594 1397.207031 C 663.488281 1422.730469 628.273438 1432.929688 588.695312 1430.398438 C 549.554688 1427.882812 507.550781 1412.8125 460.691406 1394.832031 C 427.984375 1382.328125 403.566406 1354.878906 385.507812 1323.804688 Z M 948.65625 873.832031 C 941.839844 862.09375 932.140625 851.558594 919.496094 842.15625 C 895.09375 823.910156 873.515625 805.9375 854.480469 790.078125 C 781.828125 729.484375 737.933594 692.902344 658.246094 737.144531 C 634.519531 750.304688 612.296875 761.449219 590.839844 772.253906 C 520.625 807.394531 469.917969 832.816406 464.203125 882.902344 C 460.519531 914.980469 434.175781 938 406.230469 962.296875 C 372.746094 991.46875 338.113281 1021.625 336.769531 1070.921875 C 335.582031 1114.179688 341.769531 1183.972656 362.695312 1250.109375 C 378.917969 1301.214844 409.492188 1366.5 463.613281 1387.257812 C 559.683594 1424.125 617.980469 1442.457031 698.351562 1390.390625 C 743.058594 1361.429688 775.792969 1332.75 801.367188 1300.132812 C 831.171875 1262.125 850.652344 1219.058594 860.835938 1168.488281 C 866.535156 1140.433594 884.90625 1106.859375 904.363281 1071.308594 C 926.835938 1030.269531 950.082031 987.824219 958.019531 947.585938 C 963.726562 918.90625 960.660156 894.5 948.65625 873.832031 Z M 948.65625 873.832031 " fill-opacity="1" fill-rule="nonzero"/></g></g></g></g><g clip-path="url(#14b784ccb5)"><g clip-path="url(#69fa83b441)"><g clip-path="url(#6d839bc9ca)"><g clip-path="url(#aca306a4e9)"><path fill="#000000" d="M -178.46875 -3.46875 C -177.832031 -26.332031 -175.347656 -48.988281 -171.003906 -71.445312 C -165.28125 -102.242188 -155.648438 -120.917969 -140.660156 -130.222656 C -127.035156 -138.6875 -110.832031 -138.363281 -93.691406 -138.007812 C -64.4375 -137.421875 -31.285156 -136.757812 0.128906 -179.636719 C 18.609375 -204.890625 49.464844 -221.734375 89.1875 -228.289062 C 124.070312 -234.035156 164.042969 -231.519531 201.753906 -221.191406 C 264.753906 -203.902344 306.160156 -170.007812 309.832031 -132.632812 C 318.847656 -40.859375 273.796875 33.585938 192.292969 61.597656 C 162.425781 71.863281 140.808594 95.464844 117.925781 120.457031 C 79.898438 161.976562 40.574219 204.902344 -39.152344 184.1875 C -99.34375 168.558594 -140.492188 137.1875 -161.46875 90.980469 C -173.550781 64.371094 -179.199219 33.140625 -178.46875 -3.46875 Z M 302.902344 -105.59375 C 303.070312 -114.363281 302.722656 -123.113281 301.859375 -131.84375 C 300.183594 -148.855469 289.289062 -165.597656 270.324219 -180.265625 C 252.183594 -194.285156 227.742188 -205.777344 199.644531 -213.472656 C 163.023438 -223.492188 124.253906 -225.949219 90.492188 -220.386719 C 52.875 -214.175781 23.871094 -198.429688 6.558594 -174.847656 C -27.316406 -128.585938 -64.1875 -129.378906 -93.882812 -129.996094 C -127.507812 -130.671875 -151.789062 -131.15625 -163.15625 -69.980469 C -167.371094 -48.15625 -169.78125 -26.136719 -170.386719 -3.914062 C -172.335938 93.5 -128.382812 152.738281 -37.175781 176.429688 C -3.007812 185.300781 25.101562 182.761719 51.390625 168.4375 C 74.710938 155.738281 93.660156 135.050781 111.988281 115.046875 C 134.566406 90.414062 157.90625 64.949219 189.734375 54.023438 C 259.59375 29.992188 301.386719 -29.933594 302.902344 -105.59375 Z M 302.902344 -105.59375 " fill-opacity="1" fill-rule="nonzero"/></g></g></g></g><g clip-path="url(#e7481b4806)"><g clip-path="url(#f4f77acde6)"><g clip-path="url(#b4a6958c45)"><g clip-path="url(#65d990f803)"><path fill="#000000" d="M -137.839844 -37.691406 C -137.644531 -47.339844 -136.464844 -55.984375 -134.058594 -62.894531 C -130.523438 -73.128906 -124.570312 -79.410156 -116.433594 -81.570312 C -106.074219 -84.296875 -92.742188 -85.78125 -78.539062 -87.363281 C -36.761719 -92.023438 15.226562 -97.816406 27.394531 -138.871094 C 34.027344 -161.269531 53.164062 -179.480469 81.300781 -190.160156 C 121.480469 -205.386719 171.78125 -202.214844 203.644531 -182.375 C 240.859375 -159.191406 261.113281 -136.355469 263.824219 -114.527344 C 265.402344 -101.820312 260.9375 -89.910156 250.519531 -79.105469 C 242.335938 -70.535156 227.246094 -60.222656 208.09375 -47.152344 C 162.351562 -15.882812 93.183594 31.367188 66.949219 94.570312 C 57.253906 117.878906 37.984375 146.65625 1.199219 151.347656 C -37.082031 156.214844 -77.425781 132.839844 -95.90625 108.359375 C -115.828125 82.0625 -138.785156 9.644531 -137.839844 -37.691406 Z M 35.03125 -136.601562 C 21.367188 -90.433594 -33.558594 -84.320312 -77.703125 -79.398438 C -91.5625 -77.855469 -104.652344 -76.390625 -114.390625 -73.824219 C -119.878906 -72.367188 -123.839844 -67.945312 -126.488281 -60.328125 C -139.734375 -21.976562 -112 73.789062 -89.558594 103.480469 C -72.171875 126.476562 -33.875 147.679688 0.0859375 143.34375 C 26.578125 139.96875 46.550781 122.519531 59.457031 91.453125 C 86.636719 26.050781 156.957031 -22.015625 203.476562 -53.816406 C 221.46875 -66.109375 237 -76.730469 244.65625 -84.707031 C 253.285156 -93.695312 257.019531 -103.398438 255.746094 -113.589844 C 253.367188 -132.632812 233.851562 -154.101562 199.285156 -175.628906 C 169.433594 -194.222656 122.050781 -197.140625 84.050781 -182.722656 C 58.359375 -172.90625 40.9375 -156.539062 35.03125 -136.601562 Z M 35.03125 -136.601562 " fill-opacity="1" fill-rule="nonzero"/></g></g></g></g><g clip-path="url(#712ab9c24c)"><g clip-path="url(#356db2e9b3)"><g clip-path="url(#bd0618a543)"><g clip-path="url(#3649a8168e)"><path fill="#000000" d="M -214.769531 -6.910156 C -213.972656 -46.714844 -208.5 -86.3125 -199.820312 -112.621094 C -179.40625 -174.550781 -134.304688 -208.066406 -76.078125 -204.566406 C -27.742188 -201.664062 -17.925781 -211.667969 11.242188 -241.355469 C 15.296875 -245.476562 19.890625 -250.160156 24.9375 -255.140625 C 57.863281 -287.683594 104.03125 -301.898438 158.46875 -296.25 C 194.140625 -292.558594 232.492188 -279.988281 266.445312 -260.886719 C 299.410156 -242.261719 326.402344 -218.6875 342.390625 -194.460938 C 364.761719 -160.671875 369.835938 -123.074219 357.917969 -79.53125 C 348.03125 -43.230469 328.386719 -10.71875 312.648438 15.402344 C 310.789062 18.492188 308.992188 21.476562 307.296875 24.339844 C 294.726562 45.464844 269.601562 57.328125 240.496094 71.089844 C 198.394531 90.972656 145.988281 115.730469 108.421875 179.503906 C 89.304688 211.957031 59.613281 229.945312 20.171875 232.96875 C -14.078125 235.582031 -55.675781 226.183594 -96.964844 206.511719 C -131.871094 189.878906 -163.722656 167.027344 -180.242188 146.878906 C -200.613281 121.957031 -212.839844 76.296875 -214.679688 18.292969 C -214.902344 9.953125 -214.9375 1.511719 -214.769531 -6.910156 Z M 356.148438 -120.371094 C 356.308594 -126.53125 355.996094 -132.664062 355.203125 -138.769531 C 354.414062 -144.878906 353.152344 -150.886719 351.425781 -156.800781 C 349.699219 -162.710938 347.523438 -168.453125 344.902344 -174.027344 C 342.28125 -179.601562 339.242188 -184.9375 335.789062 -190.035156 C 320.441406 -213.242188 294.425781 -235.894531 262.535156 -253.867188 C 229.46875 -272.480469 192.253906 -284.699219 157.660156 -288.285156 C 121.417969 -292.046875 69.964844 -288.347656 30.59375 -249.441406 C 25.59375 -244.503906 21.023438 -239.84375 16.980469 -235.746094 C -12.398438 -205.832031 -24.566406 -193.445312 -76.535156 -196.570312 C -130.851562 -199.832031 -173.003906 -168.320312 -192.191406 -110.109375 C -202.441406 -79.046875 -208.09375 -28.746094 -206.601562 18.019531 C -204.808594 74.269531 -193.222656 118.226562 -173.96875 141.796875 C -143.269531 179.367188 -52.578125 230.472656 19.609375 224.988281 C 56.300781 222.1875 83.859375 205.519531 101.566406 175.453125 C 140.390625 109.480469 194.027344 84.21875 237.128906 63.832031 C 265.027344 50.652344 289.136719 39.261719 300.453125 20.242188 C 302.160156 17.367188 303.949219 14.378906 305.828125 11.269531 C 321.320312 -14.433594 340.585938 -46.425781 350.230469 -81.644531 C 353.808594 -94.308594 355.78125 -107.21875 356.148438 -120.371094 Z M 356.148438 -120.371094 " fill-opacity="1" fill-rule="nonzero"/></g></g></g></g><g clip-path="url(#41f6f8e3af)"><g clip-path="url(#f99b9fa405)"><g clip-path="url(#ec66312b8e)"><g clip-path="url(#51ecd6fbe1)"><path fill="#000000" d="M -90.585938 -21.953125 C -90.609375 -25.203125 -90.242188 -28.40625 -89.476562 -31.5625 C -88.710938 -34.722656 -87.574219 -37.738281 -86.066406 -40.617188 C -81.03125 -49.675781 -71.707031 -55.773438 -58.332031 -58.703125 C -42.992188 -62.058594 -28.238281 -64.167969 -13.96875 -66.207031 C 23.550781 -71.558594 53.1875 -75.796875 59.734375 -99.238281 C 68.539062 -130.71875 94.824219 -149.632812 115.527344 -153.878906 C 128.390625 -156.519531 139.203125 -153.761719 145.144531 -146.316406 C 150.046875 -140.21875 153.851562 -128.347656 144.105469 -106.445312 C 132.117188 -79.507812 117.003906 -61.765625 102.386719 -44.621094 C 81.351562 -19.933594 61.480469 3.378906 51.882812 52.28125 C 47.726562 73.425781 39.566406 89.96875 27.601562 101.417969 C 17.015625 111.511719 4.046875 117.054688 -9.914062 117.304688 C -11.453125 117.328125 -12.992188 117.289062 -14.527344 117.1875 C -16.066406 117.082031 -17.59375 116.914062 -19.117188 116.679688 C -20.640625 116.449219 -22.152344 116.152344 -23.648438 115.789062 C -25.148438 115.429688 -26.625 115.007812 -28.089844 114.519531 C -29.550781 114.035156 -30.988281 113.488281 -32.40625 112.882812 C -33.820312 112.273438 -35.207031 111.609375 -36.566406 110.882812 C -37.925781 110.160156 -39.253906 109.378906 -40.546875 108.542969 C -41.839844 107.707031 -43.097656 106.816406 -44.316406 105.875 C -45.535156 104.933594 -46.710938 103.941406 -47.847656 102.898438 C -48.980469 101.855469 -50.070312 100.769531 -51.113281 99.636719 C -52.15625 98.5 -53.148438 97.324219 -54.09375 96.109375 C -55.035156 94.890625 -55.925781 93.636719 -56.765625 92.34375 C -57.601562 91.050781 -58.382812 89.722656 -59.109375 88.363281 C -59.835938 87.003906 -60.503906 85.617188 -61.109375 84.203125 C -61.71875 82.789062 -62.265625 81.347656 -62.753906 79.886719 C -63.242188 78.425781 -63.664062 76.945312 -64.027344 75.449219 C -66.730469 63.945312 -71.324219 51.03125 -75.769531 38.578125 C -83.234375 17.453125 -90.941406 -4.179688 -90.585938 -21.953125 Z M 142.195312 -129.933594 C 142.289062 -134.636719 141.21875 -138.480469 138.988281 -141.285156 C 134.941406 -146.3125 127 -148.050781 117.179688 -146.027344 C 98.789062 -142.261719 75.378906 -125.328125 67.488281 -97.082031 C 59.535156 -68.617188 26.007812 -63.816406 -12.808594 -58.269531 C -26.933594 -56.265625 -41.515625 -54.164062 -56.589844 -50.871094 C -67.765625 -48.425781 -75.105469 -43.796875 -79.023438 -36.734375 C -88.144531 -20.289062 -77.96875 8.261719 -68.125 35.878906 C -63.617188 48.5625 -58.945312 61.652344 -56.136719 73.625 C -55.828125 74.902344 -55.464844 76.164062 -55.046875 77.410156 C -54.632812 78.65625 -54.164062 79.882812 -53.644531 81.089844 C -53.125 82.296875 -52.554688 83.476562 -51.933594 84.636719 C -51.316406 85.796875 -50.648438 86.925781 -49.933594 88.027344 C -49.21875 89.128906 -48.457031 90.199219 -47.652344 91.238281 C -46.847656 92.277344 -46 93.277344 -45.109375 94.242188 C -44.21875 95.210938 -43.292969 96.136719 -42.324219 97.027344 C -41.355469 97.914062 -40.351562 98.757812 -39.3125 99.5625 C -38.273438 100.367188 -37.199219 101.125 -36.097656 101.835938 C -34.992188 102.550781 -33.863281 103.214844 -32.703125 103.832031 C -31.542969 104.449219 -30.359375 105.015625 -29.152344 105.53125 C -27.945312 106.050781 -26.71875 106.515625 -25.46875 106.929688 C -24.222656 107.34375 -22.960938 107.703125 -21.683594 108.011719 C -20.40625 108.316406 -19.117188 108.570312 -17.820312 108.769531 C -16.523438 108.96875 -15.21875 109.113281 -13.90625 109.199219 C -12.597656 109.289062 -11.285156 109.320312 -9.96875 109.296875 C 16.792969 108.804688 37.003906 86.917969 44.117188 50.742188 C 54.125 -0.222656 75.601562 -25.429688 96.386719 -49.8125 C 110.632812 -66.527344 125.359375 -83.820312 136.878906 -109.683594 C 140.285156 -117.445312 142.082031 -124.300781 142.195312 -129.933594 Z M 142.195312 -129.933594 " fill-opacity="1" fill-rule="nonzero"/></g></g></g></g><g clip-path="url(#0e6073638e)"><g clip-path="url(#25eeeb3d5c)"><g clip-path="url(#bb7b3500ac)"><g clip-path="url(#6332f52d09)"><path fill="#000000" d="M -279.015625 36.867188 C -278.484375 10.363281 -273.902344 -16.015625 -268.34375 -38.699219 C -251.90625 -105.980469 -220.988281 -168.777344 -197.546875 -205.09375 C -169.320312 -248.816406 -120.945312 -257.144531 -78.300781 -264.535156 C -43.988281 -270.40625 -11.566406 -275.964844 6.011719 -298.625 C 39.09375 -341.253906 96.515625 -336.566406 175.988281 -330.074219 C 199.464844 -328.164062 223.742188 -326.175781 250.246094 -325.15625 C 345.308594 -321.351562 365.253906 -263.089844 395.441406 -174.875 C 403.304688 -151.910156 412.21875 -125.867188 423.332031 -98.257812 C 440.574219 -55.4375 433.054688 -17.246094 400.386719 18.507812 C 372.296875 49.203125 330.597656 73.328125 290.1875 96.667969 C 256.203125 116.308594 224.167969 134.855469 205.832031 154.652344 C 170.503906 192.871094 131.128906 219.835938 85.472656 237.023438 C 46.460938 251.710938 3.46875 259.253906 -49.820312 260.789062 C -95.90625 262.15625 -130.714844 252.734375 -162.6875 230.375 C -194.300781 208.253906 -221.910156 174.109375 -252.105469 135.035156 C -273.210938 107.796875 -279.710938 72.230469 -279.015625 36.867188 Z M 424.191406 -53.714844 C 424.457031 -67.074219 421.6875 -80.890625 415.863281 -95.261719 C 404.675781 -123.078125 395.71875 -149.222656 387.820312 -172.289062 C 357.710938 -260.386719 339.507812 -313.589844 249.925781 -317.113281 C 223.261719 -318.171875 198.894531 -320.160156 175.335938 -322.039062 C 98.367188 -328.378906 42.761719 -332.914062 12.371094 -293.710938 C -7.113281 -268.617188 -41.015625 -262.722656 -76.914062 -256.574219 C -119.960938 -249.15625 -164.476562 -241.496094 -190.789062 -200.722656 C -213.886719 -164.949219 -244.339844 -103.089844 -260.539062 -36.769531 C -273.015625 14.5 -280.664062 85.035156 -245.78125 130.15625 C -183.867188 210.269531 -144.234375 255.484375 -50.082031 252.777344 C 2.289062 251.273438 44.453125 243.886719 82.613281 229.523438 C 127.082031 212.792969 165.457031 186.53125 199.847656 149.207031 C 218.96875 128.523438 251.5625 109.679688 286.078125 89.726562 C 325.933594 66.699219 367.15625 42.882812 394.382812 13.101562 C 413.832031 -8.105469 423.71875 -30.199219 424.191406 -53.714844 Z M 424.191406 -53.714844 " fill-opacity="1" fill-rule="nonzero"/></g></g></g></g></svg>